<mxfile host="app.diagrams.net" modified="2023-11-20T10:23:31.534Z" agent="Mozilla/5.0 (Windows NT 10.0; Win64; x64) AppleWebKit/537.36 (KHTML, like Gecko) Chrome/118.0.0.0 Safari/537.36 OPR/104.0.0.0" version="22.1.3" etag="1h8PwOYxQ31eqHFRDgxC" type="device">
  <diagram id="ikbslbPm9LD_CiqMtaIl" name="Pagina-1">
    <mxGraphModel dx="2970" dy="2347" grid="1" gridSize="10" guides="1" tooltips="1" connect="1" arrows="1" fold="1" page="1" pageScale="1" pageWidth="827" pageHeight="1169" math="0" shadow="0">
      <root>
        <mxCell id="0" />
        <mxCell id="1" parent="0" />
        <mxCell id="85" value="has" style="edgeStyle=none;html=1;exitX=0.5;exitY=0;exitDx=0;exitDy=0;entryX=0.5;entryY=1;entryDx=0;entryDy=0;startArrow=none;startFill=0;endArrow=none;endFill=0;endSize=16;" parent="1" source="19" target="51" edge="1">
          <mxGeometry relative="1" as="geometry" />
        </mxCell>
        <mxCell id="19" value="Battle" style="swimlane;fontStyle=1;align=center;verticalAlign=top;childLayout=stackLayout;horizontal=1;startSize=26;horizontalStack=0;resizeParent=1;resizeParentMax=0;resizeLast=0;collapsible=1;marginBottom=0;" parent="1" vertex="1">
          <mxGeometry x="400" y="420" width="160" height="52" as="geometry" />
        </mxCell>
        <mxCell id="97" style="edgeStyle=none;html=1;exitX=1;exitY=0.5;exitDx=0;exitDy=0;entryX=0;entryY=0.5;entryDx=0;entryDy=0;strokeWidth=1;fontSize=15;startArrow=diamond;startFill=1;endArrow=none;endFill=0;startSize=16;endSize=19;targetPerimeterSpacing=12;" parent="1" source="24" target="48" edge="1">
          <mxGeometry relative="1" as="geometry" />
        </mxCell>
        <mxCell id="98" value="participate" style="edgeStyle=none;html=1;exitX=0.5;exitY=0;exitDx=0;exitDy=0;strokeWidth=1;fontSize=15;startArrow=none;startFill=0;endArrow=none;endFill=0;startSize=16;endSize=19;targetPerimeterSpacing=12;entryX=0.25;entryY=1;entryDx=0;entryDy=0;" parent="1" source="23" target="39" edge="1">
          <mxGeometry relative="1" as="geometry">
            <mxPoint x="-121" y="430" as="targetPoint" />
          </mxGeometry>
        </mxCell>
        <mxCell id="23" value="Student" style="swimlane;fontStyle=1;align=center;verticalAlign=top;childLayout=stackLayout;horizontal=1;startSize=26;horizontalStack=0;resizeParent=1;resizeParentMax=0;resizeLast=0;collapsible=1;marginBottom=0;" parent="1" vertex="1">
          <mxGeometry x="-320" y="740" width="160" height="100" as="geometry" />
        </mxCell>
        <mxCell id="24" value="+ ID: int" style="text;strokeColor=none;fillColor=none;align=left;verticalAlign=top;spacingLeft=4;spacingRight=4;overflow=hidden;rotatable=0;points=[[0,0.5],[1,0.5]];portConstraint=eastwest;" parent="23" vertex="1">
          <mxGeometry y="26" width="160" height="26" as="geometry" />
        </mxCell>
        <mxCell id="25" value="" style="line;strokeWidth=1;fillColor=none;align=left;verticalAlign=middle;spacingTop=-1;spacingLeft=3;spacingRight=3;rotatable=0;labelPosition=right;points=[];portConstraint=eastwest;strokeColor=inherit;" parent="23" vertex="1">
          <mxGeometry y="52" width="160" height="8" as="geometry" />
        </mxCell>
        <mxCell id="26" value="+ enterTournament()&#xa;+ enterBattle()" style="text;strokeColor=none;fillColor=none;align=left;verticalAlign=top;spacingLeft=4;spacingRight=4;overflow=hidden;rotatable=0;points=[[0,0.5],[1,0.5]];portConstraint=eastwest;" parent="23" vertex="1">
          <mxGeometry y="60" width="160" height="40" as="geometry" />
        </mxCell>
        <mxCell id="27" value="leaderBoard" style="swimlane;fontStyle=1;align=center;verticalAlign=top;childLayout=stackLayout;horizontal=1;startSize=26;horizontalStack=0;resizeParent=1;resizeParentMax=0;resizeLast=0;collapsible=1;marginBottom=0;" parent="1" vertex="1">
          <mxGeometry x="150" y="86" width="160" height="52" as="geometry" />
        </mxCell>
        <mxCell id="28" value="Map: (ranks, name)" style="text;strokeColor=none;fillColor=none;align=left;verticalAlign=top;spacingLeft=4;spacingRight=4;overflow=hidden;rotatable=0;points=[[0,0.5],[1,0.5]];portConstraint=eastwest;" parent="27" vertex="1">
          <mxGeometry y="26" width="160" height="26" as="geometry" />
        </mxCell>
        <mxCell id="88" style="edgeStyle=none;html=1;exitX=0;exitY=0.5;exitDx=0;exitDy=0;entryX=1;entryY=0.5;entryDx=0;entryDy=0;strokeWidth=1;startArrow=none;startFill=0;endArrow=block;endFill=1;endSize=22;targetPerimeterSpacing=12;" parent="1" target="64" edge="1">
          <mxGeometry relative="1" as="geometry">
            <mxPoint x="550" y="-175" as="sourcePoint" />
          </mxGeometry>
        </mxCell>
        <mxCell id="31" value="RankBattle" style="swimlane;fontStyle=1;align=center;verticalAlign=top;childLayout=stackLayout;horizontal=1;startSize=26;horizontalStack=0;resizeParent=1;resizeParentMax=0;resizeLast=0;collapsible=1;marginBottom=0;" parent="1" vertex="1">
          <mxGeometry x="550" y="-214" width="160" height="52" as="geometry" />
        </mxCell>
        <mxCell id="89" style="edgeStyle=none;html=1;exitX=1;exitY=0.5;exitDx=0;exitDy=0;entryX=0;entryY=0.5;entryDx=0;entryDy=0;strokeWidth=1;startArrow=none;startFill=0;endArrow=block;endFill=1;endSize=22;targetPerimeterSpacing=12;" parent="1" target="64" edge="1">
          <mxGeometry relative="1" as="geometry">
            <mxPoint x="-140" y="-175" as="sourcePoint" />
          </mxGeometry>
        </mxCell>
        <mxCell id="35" value="RankTournament" style="swimlane;fontStyle=1;align=center;verticalAlign=top;childLayout=stackLayout;horizontal=1;startSize=26;horizontalStack=0;resizeParent=1;resizeParentMax=0;resizeLast=0;collapsible=1;marginBottom=0;" parent="1" vertex="1">
          <mxGeometry x="-300" y="-214" width="160" height="52" as="geometry" />
        </mxCell>
        <mxCell id="39" value="Tournament" style="swimlane;fontStyle=1;align=center;verticalAlign=top;childLayout=stackLayout;horizontal=1;startSize=26;horizontalStack=0;resizeParent=1;resizeParentMax=0;resizeLast=0;collapsible=1;marginBottom=0;" parent="1" vertex="1">
          <mxGeometry x="-170" y="380" width="160" height="52" as="geometry" />
        </mxCell>
        <mxCell id="HH2QMNtfr4g-k63wctIC-111" style="rounded=0;orthogonalLoop=1;jettySize=auto;html=1;entryX=0;entryY=0.5;entryDx=0;entryDy=0;endArrow=diamondThin;endFill=0;endSize=25;" edge="1" parent="1" source="43" target="HH2QMNtfr4g-k63wctIC-107">
          <mxGeometry relative="1" as="geometry" />
        </mxCell>
        <mxCell id="43" value="codeKata" style="swimlane;fontStyle=1;align=center;verticalAlign=top;childLayout=stackLayout;horizontal=1;startSize=26;horizontalStack=0;resizeParent=1;resizeParentMax=0;resizeLast=0;collapsible=1;marginBottom=0;" parent="1" vertex="1">
          <mxGeometry x="800" y="242" width="160" height="70" as="geometry" />
        </mxCell>
        <mxCell id="44" value="+ Assignement: String&#xa;+ BuildSystem: StringÂ " style="text;strokeColor=none;fillColor=none;align=left;verticalAlign=top;spacingLeft=4;spacingRight=4;overflow=hidden;rotatable=0;points=[[0,0.5],[1,0.5]];portConstraint=eastwest;" parent="43" vertex="1">
          <mxGeometry y="26" width="160" height="44" as="geometry" />
        </mxCell>
        <mxCell id="92" value="&lt;font style=&quot;font-size: 15px;&quot;&gt;0, .., n&lt;/font&gt;" style="edgeStyle=none;html=1;exitX=0.5;exitY=0;exitDx=0;exitDy=0;entryX=0.25;entryY=1;entryDx=0;entryDy=0;strokeWidth=1;startArrow=none;startFill=0;endArrow=none;endFill=0;endSize=1;targetPerimeterSpacing=12;labelPosition=right;verticalLabelPosition=bottom;align=left;verticalAlign=top;" parent="1" source="47" target="19" edge="1">
          <mxGeometry x="-0.7888" y="3" relative="1" as="geometry">
            <mxPoint as="offset" />
            <mxPoint x="450.0799999999999" y="506.9880000000003" as="targetPoint" />
          </mxGeometry>
        </mxCell>
        <mxCell id="HH2QMNtfr4g-k63wctIC-139" value="isPlayedBy" style="edgeLabel;html=1;align=center;verticalAlign=middle;resizable=0;points=[];" vertex="1" connectable="0" parent="92">
          <mxGeometry x="0.0943" y="-3" relative="1" as="geometry">
            <mxPoint as="offset" />
          </mxGeometry>
        </mxCell>
        <mxCell id="HH2QMNtfr4g-k63wctIC-140" value="1" style="edgeLabel;html=1;align=center;verticalAlign=middle;resizable=0;points=[];" vertex="1" connectable="0" parent="92">
          <mxGeometry x="0.9095" y="-10" relative="1" as="geometry">
            <mxPoint as="offset" />
          </mxGeometry>
        </mxCell>
        <mxCell id="106" style="edgeStyle=none;html=1;entryX=0.75;entryY=0;entryDx=0;entryDy=0;endArrow=none;endFill=0;endSize=16;" parent="1" source="47" target="79" edge="1">
          <mxGeometry relative="1" as="geometry" />
        </mxCell>
        <mxCell id="107" value="have" style="edgeLabel;html=1;align=center;verticalAlign=middle;resizable=0;points=[];" parent="106" vertex="1" connectable="0">
          <mxGeometry x="-0.1284" y="-2" relative="1" as="geometry">
            <mxPoint as="offset" />
          </mxGeometry>
        </mxCell>
        <mxCell id="47" value="Group" style="swimlane;fontStyle=1;align=center;verticalAlign=top;childLayout=stackLayout;horizontal=1;startSize=26;horizontalStack=0;resizeParent=1;resizeParentMax=0;resizeLast=0;collapsible=1;marginBottom=0;" parent="1" vertex="1">
          <mxGeometry x="190" y="740" width="160" height="52" as="geometry" />
        </mxCell>
        <mxCell id="48" value="+ ID: int" style="text;strokeColor=none;fillColor=none;align=left;verticalAlign=top;spacingLeft=4;spacingRight=4;overflow=hidden;rotatable=0;points=[[0,0.5],[1,0.5]];portConstraint=eastwest;" parent="47" vertex="1">
          <mxGeometry y="26" width="160" height="26" as="geometry" />
        </mxCell>
        <mxCell id="87" style="edgeStyle=none;html=1;exitX=0;exitY=0.75;exitDx=0;exitDy=0;entryX=1;entryY=0.5;entryDx=0;entryDy=0;strokeWidth=1;startArrow=none;startFill=0;endArrow=block;endFill=1;endSize=22;targetPerimeterSpacing=12;" parent="1" source="51" target="28" edge="1">
          <mxGeometry relative="1" as="geometry">
            <mxPoint x="540" y="125" as="sourcePoint" />
          </mxGeometry>
        </mxCell>
        <mxCell id="51" value="LeaderBoard Battle" style="swimlane;fontStyle=1;align=center;verticalAlign=top;childLayout=stackLayout;horizontal=1;startSize=26;horizontalStack=0;resizeParent=1;resizeParentMax=0;resizeLast=0;collapsible=1;marginBottom=0;" parent="1" vertex="1">
          <mxGeometry x="550" y="86" width="160" height="52" as="geometry" />
        </mxCell>
        <mxCell id="94" value="manage" style="edgeStyle=none;html=1;exitX=0.25;exitY=0;exitDx=0;exitDy=0;entryX=0.75;entryY=1;entryDx=0;entryDy=0;strokeWidth=1;fontSize=15;startArrow=none;startFill=0;endArrow=none;endFill=0;endSize=8;targetPerimeterSpacing=12;" parent="1" source="55" target="39" edge="1">
          <mxGeometry relative="1" as="geometry">
            <mxPoint x="-66" y="431.01200000000017" as="targetPoint" />
          </mxGeometry>
        </mxCell>
        <mxCell id="95" value="create" style="edgeStyle=none;html=1;exitX=1;exitY=0.25;exitDx=0;exitDy=0;entryX=0;entryY=0.75;entryDx=0;entryDy=0;strokeWidth=1;fontSize=15;startArrow=none;startFill=0;endArrow=none;endFill=0;endSize=16;targetPerimeterSpacing=13;" parent="1" source="55" target="19" edge="1">
          <mxGeometry relative="1" as="geometry">
            <mxPoint x="400.96000000000004" y="503.99800000000005" as="targetPoint" />
          </mxGeometry>
        </mxCell>
        <mxCell id="55" value="Educator" style="swimlane;fontStyle=1;align=center;verticalAlign=top;childLayout=stackLayout;horizontal=1;startSize=26;horizontalStack=0;resizeParent=1;resizeParentMax=0;resizeLast=0;collapsible=1;marginBottom=0;" parent="1" vertex="1">
          <mxGeometry x="-10" y="550" width="160" height="100" as="geometry" />
        </mxCell>
        <mxCell id="56" value="+ ID: int" style="text;strokeColor=none;fillColor=none;align=left;verticalAlign=top;spacingLeft=4;spacingRight=4;overflow=hidden;rotatable=0;points=[[0,0.5],[1,0.5]];portConstraint=eastwest;" parent="55" vertex="1">
          <mxGeometry y="26" width="160" height="26" as="geometry" />
        </mxCell>
        <mxCell id="57" value="" style="line;strokeWidth=1;fillColor=none;align=left;verticalAlign=middle;spacingTop=-1;spacingLeft=3;spacingRight=3;rotatable=0;labelPosition=right;points=[];portConstraint=eastwest;strokeColor=inherit;" parent="55" vertex="1">
          <mxGeometry y="52" width="160" height="8" as="geometry" />
        </mxCell>
        <mxCell id="58" value="+ createBattle()&#xa;+ createTournament()" style="text;strokeColor=none;fillColor=none;align=left;verticalAlign=top;spacingLeft=4;spacingRight=4;overflow=hidden;rotatable=0;points=[[0,0.5],[1,0.5]];portConstraint=eastwest;" parent="55" vertex="1">
          <mxGeometry y="60" width="160" height="40" as="geometry" />
        </mxCell>
        <mxCell id="59" value="Rules&#xa;" style="swimlane;fontStyle=1;align=center;verticalAlign=top;childLayout=stackLayout;horizontal=1;startSize=26;horizontalStack=0;resizeParent=1;resizeParentMax=0;resizeLast=0;collapsible=1;marginBottom=0;" parent="1" vertex="1">
          <mxGeometry x="890" y="670" width="200" height="110" as="geometry" />
        </mxCell>
        <mxCell id="60" value="+ minStudents: int&#xa;+ maxStudents: int&#xa;+ registrationDeadline: date&#xa;+ finalSubmissionDeadline : date&#xa;+ manualEval: bool" style="text;strokeColor=none;fillColor=none;align=left;verticalAlign=top;spacingLeft=4;spacingRight=4;overflow=hidden;rotatable=0;points=[[0,0.5],[1,0.5]];portConstraint=eastwest;" parent="59" vertex="1">
          <mxGeometry y="26" width="200" height="84" as="geometry" />
        </mxCell>
        <mxCell id="63" value="Rank" style="swimlane;fontStyle=1;align=center;verticalAlign=top;childLayout=stackLayout;horizontal=1;startSize=26;horizontalStack=0;resizeParent=1;resizeParentMax=0;resizeLast=0;collapsible=1;marginBottom=0;" parent="1" vertex="1">
          <mxGeometry x="130" y="-214" width="160" height="52" as="geometry" />
        </mxCell>
        <mxCell id="64" value="+ Position: int" style="text;strokeColor=none;fillColor=none;align=left;verticalAlign=top;spacingLeft=4;spacingRight=4;overflow=hidden;rotatable=0;points=[[0,0.5],[1,0.5]];portConstraint=eastwest;" parent="63" vertex="1">
          <mxGeometry y="26" width="160" height="26" as="geometry" />
        </mxCell>
        <mxCell id="84" value="has" style="edgeStyle=none;html=1;exitX=0.5;exitY=1;exitDx=0;exitDy=0;entryX=0.306;entryY=0;entryDx=0;entryDy=0;entryPerimeter=0;startArrow=none;startFill=0;endArrow=none;endFill=0;endSize=12;startSize=16;" parent="1" source="67" target="39" edge="1">
          <mxGeometry relative="1" as="geometry" />
        </mxCell>
        <mxCell id="86" style="edgeStyle=none;html=1;exitX=1;exitY=0.5;exitDx=0;exitDy=0;entryX=0;entryY=0.5;entryDx=0;entryDy=0;startArrow=none;startFill=0;endArrow=block;endFill=1;strokeWidth=1;targetPerimeterSpacing=12;endSize=22;" parent="1" target="28" edge="1">
          <mxGeometry relative="1" as="geometry">
            <mxPoint x="-140" y="125" as="sourcePoint" />
          </mxGeometry>
        </mxCell>
        <mxCell id="104" style="edgeStyle=none;html=1;exitX=0.5;exitY=0;exitDx=0;exitDy=0;entryX=0.5;entryY=1;entryDx=0;entryDy=0;endArrow=diamondThin;endFill=0;endSize=25;" parent="1" source="67" target="35" edge="1">
          <mxGeometry relative="1" as="geometry">
            <mxPoint x="-217.92000000000007" y="-125.99800000000005" as="targetPoint" />
          </mxGeometry>
        </mxCell>
        <mxCell id="67" value="LeaderBoard Tournament" style="swimlane;fontStyle=1;align=center;verticalAlign=top;childLayout=stackLayout;horizontal=1;startSize=26;horizontalStack=0;resizeParent=1;resizeParentMax=0;resizeLast=0;collapsible=1;marginBottom=0;" parent="1" vertex="1">
          <mxGeometry x="-300" y="86" width="160" height="52" as="geometry" />
        </mxCell>
        <mxCell id="71" value="Github" style="swimlane;fontStyle=1;align=center;verticalAlign=top;childLayout=stackLayout;horizontal=1;startSize=26;horizontalStack=0;resizeParent=1;resizeParentMax=0;resizeLast=0;collapsible=1;marginBottom=0;" parent="1" vertex="1">
          <mxGeometry x="520" y="1020" width="160" height="52" as="geometry">
            <mxRectangle x="520" y="1020" width="80" height="30" as="alternateBounds" />
          </mxGeometry>
        </mxCell>
        <mxCell id="83" value="&lt;font style=&quot;font-size: 14px;&quot;&gt;hosts&lt;/font&gt;" style="edgeStyle=none;html=1;entryX=0.5;entryY=0;entryDx=0;entryDy=0;endArrow=none;endFill=0;exitX=0.5;exitY=1;exitDx=0;exitDy=0;" parent="1" source="75" target="71" edge="1">
          <mxGeometry x="-0.0172" y="24" relative="1" as="geometry">
            <mxPoint as="offset" />
            <mxPoint x="600" y="936.8319999999999" as="sourcePoint" />
          </mxGeometry>
        </mxCell>
        <mxCell id="99" value="has" style="edgeStyle=none;html=1;exitX=0.5;exitY=0;exitDx=0;exitDy=0;entryX=0.75;entryY=1;entryDx=0;entryDy=0;strokeWidth=1;fontSize=15;startArrow=none;startFill=0;endArrow=none;endFill=0;startSize=16;endSize=19;targetPerimeterSpacing=12;" parent="1" source="75" target="19" edge="1">
          <mxGeometry relative="1" as="geometry">
            <mxPoint x="558.0799999999999" y="506.9880000000003" as="targetPoint" />
          </mxGeometry>
        </mxCell>
        <mxCell id="75" value="Repository" style="swimlane;fontStyle=1;align=center;verticalAlign=top;childLayout=stackLayout;horizontal=1;startSize=26;horizontalStack=0;resizeParent=1;resizeParentMax=0;resizeLast=0;collapsible=1;marginBottom=0;" parent="1" vertex="1">
          <mxGeometry x="520" y="850" width="160" height="52" as="geometry" />
        </mxCell>
        <mxCell id="79" value="Score" style="swimlane;fontStyle=1;align=center;verticalAlign=top;childLayout=stackLayout;horizontal=1;startSize=26;horizontalStack=0;resizeParent=1;resizeParentMax=0;resizeLast=0;collapsible=1;marginBottom=0;" parent="1" vertex="1">
          <mxGeometry x="-70" y="980" width="160" height="52" as="geometry" />
        </mxCell>
        <mxCell id="90" style="edgeStyle=none;html=1;exitX=1;exitY=0.25;exitDx=0;exitDy=0;entryX=0;entryY=0.5;entryDx=0;entryDy=0;strokeWidth=1;startArrow=none;startFill=0;endArrow=none;endFill=0;endSize=16;targetPerimeterSpacing=12;startSize=13;sourcePerimeterSpacing=7;" parent="1" source="19" target="44" edge="1">
          <mxGeometry relative="1" as="geometry">
            <mxPoint x="560" y="459" as="sourcePoint" />
          </mxGeometry>
        </mxCell>
        <mxCell id="HH2QMNtfr4g-k63wctIC-113" value="Contains" style="edgeLabel;html=1;align=center;verticalAlign=middle;resizable=0;points=[];" vertex="1" connectable="0" parent="90">
          <mxGeometry x="-0.027" y="-2" relative="1" as="geometry">
            <mxPoint as="offset" />
          </mxGeometry>
        </mxCell>
        <mxCell id="91" style="edgeStyle=none;html=1;exitX=0;exitY=0.5;exitDx=0;exitDy=0;entryX=1;entryY=0.75;entryDx=0;entryDy=0;strokeWidth=1;startArrow=none;startFill=0;endArrow=none;endFill=0;endSize=6;targetPerimeterSpacing=16;sourcePerimeterSpacing=3;startSize=16;" parent="1" source="59" target="19" edge="1">
          <mxGeometry relative="1" as="geometry">
            <mxPoint x="560.96" y="467.9960000000001" as="targetPoint" />
          </mxGeometry>
        </mxCell>
        <mxCell id="HH2QMNtfr4g-k63wctIC-114" value="isSubjectTo" style="edgeLabel;html=1;align=center;verticalAlign=middle;resizable=0;points=[];" vertex="1" connectable="0" parent="91">
          <mxGeometry x="0.0947" y="-3" relative="1" as="geometry">
            <mxPoint as="offset" />
          </mxGeometry>
        </mxCell>
        <mxCell id="96" style="edgeStyle=none;html=1;exitX=1;exitY=0.75;exitDx=0;exitDy=0;entryX=0;entryY=0.25;entryDx=0;entryDy=0;strokeWidth=1;fontSize=15;startArrow=none;startFill=0;endArrow=diamondThin;endFill=0;endSize=25;targetPerimeterSpacing=12;startSize=18;" parent="1" source="39" target="19" edge="1">
          <mxGeometry relative="1" as="geometry">
            <mxPoint x="-10" y="419" as="sourcePoint" />
            <mxPoint x="400" y="459" as="targetPoint" />
          </mxGeometry>
        </mxCell>
        <mxCell id="100" style="edgeStyle=none;html=1;exitX=0.529;exitY=1.04;exitDx=0;exitDy=0;entryX=0.25;entryY=0;entryDx=0;entryDy=0;endArrow=none;endFill=0;exitPerimeter=0;endSize=16;" parent="1" source="26" target="79" edge="1">
          <mxGeometry relative="1" as="geometry" />
        </mxCell>
        <mxCell id="HH2QMNtfr4g-k63wctIC-143" value="has" style="edgeLabel;html=1;align=center;verticalAlign=middle;resizable=0;points=[];" vertex="1" connectable="0" parent="100">
          <mxGeometry x="-0.1094" y="-2" relative="1" as="geometry">
            <mxPoint as="offset" />
          </mxGeometry>
        </mxCell>
        <mxCell id="102" style="edgeStyle=none;html=1;exitX=0.5;exitY=0;exitDx=0;exitDy=0;endArrow=diamondThin;endFill=0;endSize=25;entryX=0.5;entryY=1;entryDx=0;entryDy=0;" parent="1" source="51" target="31" edge="1">
          <mxGeometry relative="1" as="geometry">
            <mxPoint x="630" y="-159.99800000000005" as="targetPoint" />
          </mxGeometry>
        </mxCell>
        <mxCell id="HH2QMNtfr4g-k63wctIC-107" value="testCase" style="swimlane;fontStyle=1;align=center;verticalAlign=top;childLayout=stackLayout;horizontal=1;startSize=26;horizontalStack=0;resizeParent=1;resizeParentMax=0;resizeLast=0;collapsible=1;marginBottom=0;whiteSpace=wrap;html=1;" vertex="1" parent="1">
          <mxGeometry x="1250" y="246" width="160" height="52" as="geometry" />
        </mxCell>
        <mxCell id="HH2QMNtfr4g-k63wctIC-117" value="1, .., n" style="text;html=1;align=center;verticalAlign=middle;resizable=0;points=[];autosize=1;strokeColor=none;fillColor=none;" vertex="1" parent="1">
          <mxGeometry x="10" y="518" width="60" height="30" as="geometry" />
        </mxCell>
        <mxCell id="HH2QMNtfr4g-k63wctIC-118" value="1, ..., n" style="text;html=1;align=center;verticalAlign=middle;resizable=0;points=[];autosize=1;strokeColor=none;fillColor=none;" vertex="1" parent="1">
          <mxGeometry x="-40" y="431" width="60" height="30" as="geometry" />
        </mxCell>
        <mxCell id="HH2QMNtfr4g-k63wctIC-119" value="1" style="text;html=1;align=center;verticalAlign=middle;resizable=0;points=[];autosize=1;strokeColor=none;fillColor=none;" vertex="1" parent="1">
          <mxGeometry x="-165" y="428" width="30" height="30" as="geometry" />
        </mxCell>
        <mxCell id="HH2QMNtfr4g-k63wctIC-120" value="1, ..., n" style="text;html=1;align=center;verticalAlign=middle;resizable=0;points=[];autosize=1;strokeColor=none;fillColor=none;" vertex="1" parent="1">
          <mxGeometry x="-240" y="708" width="60" height="30" as="geometry" />
        </mxCell>
        <mxCell id="HH2QMNtfr4g-k63wctIC-121" value="1" style="text;html=1;align=center;verticalAlign=middle;resizable=0;points=[];autosize=1;strokeColor=none;fillColor=none;" vertex="1" parent="1">
          <mxGeometry x="-55" y="938" width="30" height="30" as="geometry" />
        </mxCell>
        <mxCell id="HH2QMNtfr4g-k63wctIC-123" value="1" style="text;html=1;align=center;verticalAlign=middle;resizable=0;points=[];autosize=1;strokeColor=none;fillColor=none;" vertex="1" parent="1">
          <mxGeometry x="85" y="948" width="30" height="30" as="geometry" />
        </mxCell>
        <mxCell id="HH2QMNtfr4g-k63wctIC-124" value="1" style="text;html=1;align=center;verticalAlign=middle;resizable=0;points=[];autosize=1;strokeColor=none;fillColor=none;" vertex="1" parent="1">
          <mxGeometry x="190" y="792" width="30" height="30" as="geometry" />
        </mxCell>
        <mxCell id="HH2QMNtfr4g-k63wctIC-125" value="1, .., n" style="text;html=1;align=center;verticalAlign=middle;resizable=0;points=[];autosize=1;strokeColor=none;fillColor=none;" vertex="1" parent="1">
          <mxGeometry x="600" y="908" width="60" height="30" as="geometry" />
        </mxCell>
        <mxCell id="HH2QMNtfr4g-k63wctIC-126" value="1" style="text;html=1;align=center;verticalAlign=middle;resizable=0;points=[];autosize=1;strokeColor=none;fillColor=none;" vertex="1" parent="1">
          <mxGeometry x="-200" y="138" width="30" height="30" as="geometry" />
        </mxCell>
        <mxCell id="HH2QMNtfr4g-k63wctIC-127" value="1" style="text;html=1;align=center;verticalAlign=middle;resizable=0;points=[];autosize=1;strokeColor=none;fillColor=none;" vertex="1" parent="1">
          <mxGeometry x="-125" y="348" width="30" height="30" as="geometry" />
        </mxCell>
        <mxCell id="HH2QMNtfr4g-k63wctIC-128" value="1" style="text;html=1;align=center;verticalAlign=middle;resizable=0;points=[];autosize=1;strokeColor=none;fillColor=none;" vertex="1" parent="1">
          <mxGeometry x="625" y="138" width="30" height="30" as="geometry" />
        </mxCell>
        <mxCell id="HH2QMNtfr4g-k63wctIC-129" value="1" style="text;html=1;align=center;verticalAlign=middle;resizable=0;points=[];autosize=1;strokeColor=none;fillColor=none;" vertex="1" parent="1">
          <mxGeometry x="445" y="388" width="30" height="30" as="geometry" />
        </mxCell>
        <mxCell id="HH2QMNtfr4g-k63wctIC-130" value="1" style="text;html=1;align=center;verticalAlign=middle;resizable=0;points=[];autosize=1;strokeColor=none;fillColor=none;" vertex="1" parent="1">
          <mxGeometry x="605" y="988" width="30" height="30" as="geometry" />
        </mxCell>
        <mxCell id="HH2QMNtfr4g-k63wctIC-131" value="1" style="text;html=1;align=center;verticalAlign=middle;resizable=0;points=[];autosize=1;strokeColor=none;fillColor=none;" vertex="1" parent="1">
          <mxGeometry x="745" y="258" width="30" height="30" as="geometry" />
        </mxCell>
        <mxCell id="HH2QMNtfr4g-k63wctIC-132" value="1" style="text;html=1;align=center;verticalAlign=middle;resizable=0;points=[];autosize=1;strokeColor=none;fillColor=none;" vertex="1" parent="1">
          <mxGeometry x="555" y="388" width="30" height="30" as="geometry" />
        </mxCell>
        <mxCell id="HH2QMNtfr4g-k63wctIC-133" value="1" style="text;html=1;align=center;verticalAlign=middle;resizable=0;points=[];autosize=1;strokeColor=none;fillColor=none;" vertex="1" parent="1">
          <mxGeometry x="835" y="708" width="30" height="30" as="geometry" />
        </mxCell>
        <mxCell id="HH2QMNtfr4g-k63wctIC-134" value="1" style="text;html=1;align=center;verticalAlign=middle;resizable=0;points=[];autosize=1;strokeColor=none;fillColor=none;" vertex="1" parent="1">
          <mxGeometry x="545" y="468" width="30" height="30" as="geometry" />
        </mxCell>
        <mxCell id="HH2QMNtfr4g-k63wctIC-135" value="1" style="text;html=1;align=center;verticalAlign=middle;resizable=0;points=[];autosize=1;strokeColor=none;fillColor=none;" vertex="1" parent="1">
          <mxGeometry x="490" y="488" width="30" height="30" as="geometry" />
        </mxCell>
        <mxCell id="HH2QMNtfr4g-k63wctIC-136" value="1" style="text;html=1;align=center;verticalAlign=middle;resizable=0;points=[];autosize=1;strokeColor=none;fillColor=none;" vertex="1" parent="1">
          <mxGeometry x="600" y="810" width="30" height="30" as="geometry" />
        </mxCell>
        <mxCell id="HH2QMNtfr4g-k63wctIC-137" value="1" style="text;html=1;align=center;verticalAlign=middle;resizable=0;points=[];autosize=1;strokeColor=none;fillColor=none;" vertex="1" parent="1">
          <mxGeometry x="160" y="570" width="30" height="30" as="geometry" />
        </mxCell>
        <mxCell id="HH2QMNtfr4g-k63wctIC-138" value="1, ..., n" style="text;html=1;align=center;verticalAlign=middle;resizable=0;points=[];autosize=1;strokeColor=none;fillColor=none;" vertex="1" parent="1">
          <mxGeometry x="290" y="458" width="60" height="30" as="geometry" />
        </mxCell>
        <mxCell id="HH2QMNtfr4g-k63wctIC-122" value="1" style="text;html=1;align=center;verticalAlign=middle;resizable=0;points=[];autosize=1;strokeColor=none;fillColor=none;" vertex="1" parent="1">
          <mxGeometry x="-210" y="840" width="30" height="30" as="geometry" />
        </mxCell>
      </root>
    </mxGraphModel>
  </diagram>
</mxfile>
